<?xml version="1.0" encoding="UTF-8" standalone="no"?>
<svg xmlns="http://www.w3.org/2000/svg" width="300pt" height="300pt" viewBox="0 0 375 375">
    <g transform="translate(-54.568583,-52.705449)">
        <g transform="translate(2.2790551,-2.2728393)">
            <path id="edelweiss"
                  d="m 169.27585,194.62635 c -0.71241,1.68501 -25.33211,6.50834 -46.50708,-6.64322 -10.8562,-6.74266 -29.110768,-20.18046 -43.782811,-33.60679 -8.335671,-7.62795 -17.59459,-8.07911 -10.313285,14.06797 5.238909,15.93482 36.448336,48.81817 42.226106,53.53642 9.05976,7.39841 35.35579,16.98515 35.41542,18.95267 0.0627,2.06869 -30.93986,15.82647 -39.50183,24.42356 -8.561973,8.59709 -17.123945,18.75727 -6.22689,19.53883 10.89706,0.78156 32.10739,-4.88472 39.89102,-7.22938 7.78361,-2.34467 25.74569,-9.94921 27.04804,-8.40169 1.30235,1.54752 -29.57772,32.04369 -28.79936,41.42234 0.77836,9.37864 4.67017,14.84952 12.45378,14.06796 7.78361,-0.78156 33.31239,-18.63144 35.02625,-17.19417 1.71385,1.43727 -13.42673,29.69903 -13.42673,47.67477 0,17.97573 4.67017,58.22575 10.1187,60.57041 5.44852,2.34466 9.53492,-5.0801 14.98344,-22.27427 5.44854,-17.19418 16.33244,-50.11089 21.59953,-59.59346 7.52004,-13.53866 16.59118,-20.42285 16.34558,-19.92962 0,0 6.42148,31.8483 12.64837,43.57161 6.22688,11.7233 15.37263,19.34345 20.82116,17.78033 5.44853,-1.5631 4.39701,-18.42651 4.0864,-27.15898 -0.38919,-10.94176 0.0338,-44.2437 2.91885,-45.91627 3.28299,-1.90321 24.16903,16.38418 37.55592,23.25121 17.90231,9.18326 48.42416,11.96552 55.65283,11.52793 9.92859,-0.60104 17.12394,-10.94177 -2.1405,-18.17114 -7.50658,-2.81698 -31.27462,-20.68419 -38.91806,-29.89441 -12.96204,-15.61904 -19.26998,-28.08715 -15.17803,-31.45755 3.02566,-2.49215 25.45365,-8.48876 38.43157,-12.30947 4.3171,-1.27096 39.95156,-12.67165 48.74487,-16.41262 11.49484,-4.89031 18.25052,-14.96032 14.59426,-17.19418 -3.83782,-2.34481 -43.00917,1.784 -53.12314,1.95389 -14.9864,0.25174 -35.56721,2.18209 -39.69641,0.78155 -4.03248,-1.36775 -7.19983,-8.01093 -1.75131,-12.70023 5.44853,-4.68933 23.54543,-20.71119 27.04806,-27.15902 2.98176,-5.48897 1.36211,-16.99877 -7.19986,-18.5619 -8.56197,-1.56309 -32.72542,19.63003 -38.72347,24.42357 -9.53492,7.62013 -9.72951,-4.88473 -6.61606,-15.04492 3.11343,-10.1602 23.54542,-55.49031 28.99395,-64.86895 5.3344,-9.182196 16.54017,-24.814329 14.20509,-31.066758 -2.33507,-6.252429 -8.75655,-2.540037 -21.21033,5.275495 -12.45378,7.815533 -44.36658,36.928403 -51.56643,49.042483 -3.67748,6.18751 -17.44625,34.73305 -19.26445,34.77915 -1.81819,0.0461 -15.88529,-33.60681 -18.68066,-46.89323 -2.77728,-13.200366 -3.89991,-29.650869 -7.00526,-36.146859 -2.33509,-4.884699 -6.41505,-10.129139 -10.89704,-8.597092 -9.14575,3.126222 -13.81649,38.491551 -13.03755,52.559501 0.77893,14.06795 2.69244,35.23409 2.91886,38.88228 0.34052,5.48689 -8.36533,7.1166 -12.84297,4.10316 -5.25214,-3.53467 -13.62132,-11.33253 -18.0969,-16.41262 -4.4364,-5.03565 -10.1187,-13.87259 -14.98345,-13.48179 -7.0259,0.56437 -2.65432,28.79715 0.1946,39.27306 3.27055,12.02636 16.27963,21.17544 15.56721,22.86044 z"
                  style="fill:#1b5e20;"/>
        </g>
        <g id="edelweiss-center"
           transform="matrix(0.93848399,0,0,0.93845281,13.862644,15.798203)"
           style="fill:#fff;">
            <path
                    d="m 240.68439,209.92508 c 11.17023,1.32828 22.19243,11.69109 22.77694,21.10932 0.58449,9.41824 -4.09924,23.05994 -15.41975,27.76697 -8.11848,3.37562 -23.97683,3.197 -29.57767,-1.07675 -8.64151,-6.59393 -13.59534,-14.18378 -12.71564,-23.01709 0.87969,-8.83328 7.76653,-16.53717 11.57218,-18.67187 3.12454,-1.75262 12.19369,-7.43888 23.36394,-6.11058 z"/>
            <path
                    d="m 215.98518,175.14935 c 3.93956,-4.16405 10.43245,-3.71376 14.09949,1.24922 4.76893,6.45426 2.69548,12.28395 -2.48814,16.03161 -5.2676,3.80837 -14.30683,3.33123 -15.9656,-4.78866 -1.1733,-5.74347 0.4147,-8.32812 4.35425,-12.49217 z"/>
            <path
                    d="m 284.61649,184.31027 c 3.73223,6.45428 6.42772,10.82654 2.2808,17.48902 -4.1469,6.66249 -12.64807,15.82341 -17.62435,12.07576 -4.97628,-3.74764 -12.85541,-11.03474 -9.33054,-21.44487 4.86883,-13.75493 20.41579,-14.83267 24.67409,-8.11991 z"/>
            <path
                    d="m 280.88428,230.11485 c 3.00651,-2.08202 9.1232,-7.07888 15.13621,-4.16403 6.01302,2.91482 12.57601,9.69993 11.81868,16.23979 -1.03671,8.95274 -8.26975,14.10477 -14.30683,18.32185 -9.53788,6.66249 -16.17292,0.2082 -19.07577,-5.62147 -1.96154,-9.73313 -0.0795,-15.51364 6.42771,-24.77614 z"/>
            <path
                    d="m 253.30736,269.25699 c 5.85161,-0.38399 14.09947,-10e-6 18.24638,4.37224 4.1469,4.37226 3.7322,13.11677 -1.86611,17.28084 -7.39509,5.5005 -13.2701,7.49528 -23.01533,7.07887 -9.74524,-0.4164 -18.86843,-2.49843 -19.49046,-9.78552 -0.62205,-7.28709 2.00323,-12.47232 4.76894,-13.74138 4.27653,-1.96232 15.50496,-4.82106 21.35658,-5.20505 z"/>
            <path
                    d="m 184.8834,251.76795 c 3.93955,-2.08202 15.75823,-0.20821 18.24638,2.29023 2.48814,2.49843 9.1232,14.366 9.33054,20.40386 0.20735,6.03788 -3.70858,10.87855 -6.8424,12.70037 -7.87913,4.58047 -13.06275,0.2082 -17.417,-5.62147 -4.35425,-5.82969 -8.06971,-13.75408 -8.29382,-19.15466 -0.20735,-4.99685 2.56294,-9.34289 4.9763,-10.61833 z"/>
            <path
                    d="m 197.94614,232.4051 c 3.93957,-5.41327 6.03687,-12.85972 4.5616,-17.48902 -1.65877,-5.20508 -10.9893,-8.53633 -14.72152,-9.16092 -3.73221,-0.62462 -14.30683,4.37224 -17.20965,10.41013 -3.20104,6.65813 -0.82938,13.53317 2.48814,17.48902 7.11553,9.1275 16.53091,8.34319 24.88143,-1.24921 z"/>
        </g>
    </g>
</svg>
