<?xml version="1.0" encoding="iso-8859-1"?>
<svg version="1.1" xmlns="http://www.w3.org/2000/svg" viewBox="0 0 280.028 280.028" xml:space="preserve">
<g>
    <path style="fill:#DBDEE0;" d="M270.401,93.634c0-1.75,0.875-4.375,0.875-6.126c0-19.252-15.752-35.003-35.003-35.003
        c-14.001,0-25.377,7.876-31.503,19.252c-4.375-6.126-12.251-10.501-21.002-10.501c-14.876,0-26.253,11.376-26.253,26.253
        c0,1.75,0,4.375,0.875,6.126c-6.126,5.251-9.626,12.251-9.626,20.127c0,14.876,11.376,26.253,26.253,26.253h78.758
        c14.876,0,26.253-11.376,26.253-26.253C280.027,105.885,276.527,98.885,270.401,93.634z"/>
    <path style="fill:#3DB39E;" d="M140.014,0l140.014,280.027H0L140.014,0z"/>
    <g>
        <path style="fill:#E4E7E7;" d="M87.509,96.259l26.253,26.253l26.253-26.253l26.253,26.253l26.253-26.253L148.765,0h-17.502
                    L87.509,96.259z"/>
    </g>
    <path style="fill:#4A4A4A;" d="M157.515,253.775h17.502v26.253h-17.502V253.775z"/>
    <polygon style="fill:#277264;" points="210.021,253.775 182.018,218.771 201.27,218.771 166.266,175.017 131.263,218.771 
        150.515,218.771 122.512,253.775"/>
    <polygon style="fill:#349886;" points="61.256,157.515 0,280.027 8.751,280.027 129.513,157.515     "/>
    <path style="fill:#ECEEEE;" d="M121.637,128.638c0-1.75,0.875-4.375,0.875-6.126c0-19.252-15.752-35.003-35.003-35.003
        c-14.001,0-25.377,7.876-31.503,19.252c-4.375-6.126-12.251-10.501-21.002-10.501c-14.876,0-26.253,11.376-26.253,26.253
        c0,1.75,0,4.375,0.875,6.126C3.5,133.888,0,140.889,0,148.765c0,14.876,11.376,26.253,26.253,26.253h78.758
        c14.876,0,26.253-11.376,26.253-26.253C131.263,140.889,127.762,133.888,121.637,128.638z"/>
</g>
</svg>
